<svg width="648" height="118" viewBox="0 0 648 118" fill="none" xmlns="http://www.w3.org/2000/svg">
<path d="M645.5 59C645.5 62.073 643.798 65.4253 639.755 69.023C635.723 72.6118 629.63 76.1904 621.55 79.6692C605.408 86.6186 581.897 92.9347 552.655 98.2598C494.21 108.902 413.367 115.5 324 115.5C234.633 115.5 153.79 108.902 95.3453 98.2598C66.1026 92.9347 42.5916 86.6186 26.4501 79.6692C18.3698 76.1904 12.2774 72.6118 8.24449 69.023C4.20166 65.4253 2.5 62.073 2.5 59C2.5 55.927 4.20166 52.5747 8.24449 48.977C12.2774 45.3882 18.3698 41.8096 26.4501 38.3308C42.5916 31.3814 66.1026 25.0653 95.3453 19.7403C153.79 9.0976 234.633 2.5 324 2.5C413.367 2.5 494.21 9.0976 552.655 19.7403C581.897 25.0653 605.408 31.3814 621.55 38.3308C629.63 41.8096 635.723 45.3882 639.755 48.977C643.798 52.5747 645.5 55.927 645.5 59Z" stroke="#6DED6D" stroke-width="5"/>
</svg>
